HIERARCHY
ROOT Hips
{
	OFFSET 0.000000 0.000000 0.000000
	CHANNELS 6 Xposition Yposition Zposition Yrotation Xrotation Zrotation
	JOINT Chest
	{
		OFFSET 0.000000 -0.009281 11.569106
		CHANNELS 3 Yrotation Xrotation Zrotation
		JOINT Chest2
		{
			OFFSET -0.000000 0.016865 9.269641
			CHANNELS 3 Yrotation Xrotation Zrotation
			JOINT Chest3
			{
				OFFSET -0.000000 0.000001 8.374491
				CHANNELS 3 Yrotation Xrotation Zrotation
				JOINT Chest4
				{
					OFFSET -0.000000 0.000001 8.374493
					CHANNELS 3 Yrotation Xrotation Zrotation
					JOINT Neck
					{
						OFFSET -0.000000 0.000002 12.152554
						CHANNELS 3 Yrotation Xrotation Zrotation
						JOINT Head
						{
							OFFSET -0.000000 0.040101 7.802319
							CHANNELS 3 Yrotation Xrotation Zrotation
							End Site
							{
								OFFSET -0.000000 0.020947 14.853096
							}
						}
					}
					JOINT RightCollar
					{
						OFFSET 2.894404 0.000001 6.791374
						CHANNELS 3 Yrotation Xrotation Zrotation
						JOINT RightShoulder
						{
							OFFSET 13.574684 0.000001 0.000000
							CHANNELS 3 Yrotation Xrotation Zrotation
							JOINT RightElbow
							{
								OFFSET 23.923903 0.000002 0.000000
								CHANNELS 3 Yrotation Xrotation Zrotation
								JOINT RightWrist
								{
									OFFSET 19.846718 0.012767 0.000000
									CHANNELS 3 Yrotation Xrotation Zrotation
									End Site
									{
										OFFSET 14.973145 0.000001 0.000000
									}
								}
							}
						}
					}
					JOINT LeftCollar
					{
						OFFSET -2.894404 0.000001 6.791374
						CHANNELS 3 Yrotation Xrotation Zrotation
						JOINT LeftShoulder
						{
							OFFSET -13.574684 -0.000001 0.000000
							CHANNELS 3 Yrotation Xrotation Zrotation
							JOINT LeftElbow
							{
								OFFSET -23.923903 -0.000002 0.000000
								CHANNELS 3 Yrotation Xrotation Zrotation
								JOINT LeftWrist
								{
									OFFSET -19.846718 0.012763 0.000000
									CHANNELS 3 Yrotation Xrotation Zrotation
									End Site
									{
										OFFSET -14.973145 -0.000001 0.000000
									}
								}
							}
						}
					}
				}
			}
		}
	}
	JOINT RightHip
	{
		OFFSET 9.469263 0.004643 0.045487
		CHANNELS 3 Yrotation Xrotation Zrotation
		JOINT RightKnee
		{
			OFFSET 0.000000 0.002661 -40.478676
			CHANNELS 3 Yrotation Xrotation Zrotation
			JOINT RightAnkle
			{
				OFFSET 0.000000 0.049106 -35.224068
				CHANNELS 3 Yrotation Xrotation Zrotation
				JOINT RightToe
				{
					OFFSET -0.000001 12.539529 -6.151390
					CHANNELS 3 Yrotation Xrotation Zrotation
					End Site
					{
						OFFSET -0.000001 5.044994 -1.291870
					}
				}
			}
		}
	}
	JOINT LeftHip
	{
		OFFSET -9.469263 0.004641 0.045487
		CHANNELS 3 Yrotation Xrotation Zrotation
		JOINT LeftKnee
		{
			OFFSET 0.000000 0.002661 -40.478676
			CHANNELS 3 Yrotation Xrotation Zrotation
			JOINT LeftAnkle
			{
				OFFSET 0.000000 0.049106 -35.224068
				CHANNELS 3 Yrotation Xrotation Zrotation
				JOINT LeftToe
				{
					OFFSET -0.000001 12.539529 -6.151390
					CHANNELS 3 Yrotation Xrotation Zrotation
					End Site
					{
						OFFSET -0.000001 5.044994 -1.291870
					}
				}
			}
		}
	}
}
MOTION
Frames: 12
Frame Time: 0.016667
6.237823 13.177175 83.424324 -1.052526 1.893969 -98.169626 -3.169617 -2.985260 -0.537545 -1.125034 -1.390194 -0.236051 -1.125034 -1.390194 -0.236049 -0.844271 -1.042216 -0.179591 3.824263 -15.389753 -7.799829 4.241933 7.602644 -13.146186 9.209014 5.214415 -1.153587 47.207645 -19.188921 -12.952047 23.972152 -38.513801 43.454070 -28.517165 39.171009 66.139625 -6.797487 5.279181 -3.299504 -42.313807 -6.431806 14.353108 -42.923624 -56.293695 -20.559206 16.586860 15.295374 -56.643749 6.092381 -4.662092 -20.579963 5.957831 -7.721478 -4.076804 -11.953408 4.349406 6.487296 -1.049834 7.799535 0.354560 -13.703618 5.558553 -14.128269 -3.140047 -0.094946 5.935739 0.138555 -8.845568 7.221810 -0.635745 1.364684 -0.186523 
6.637889 12.974445 83.492851 -1.232572 1.726016 -98.228352 -3.062104 -3.060284 -0.506184 -1.097547 -1.410520 -0.218419 -1.097548 -1.410520 -0.218419 -0.823624 -1.057502 -0.166342 3.812418 -15.461438 -7.813221 4.220375 7.468486 -13.173378 9.210274 5.212150 -1.154203 47.175854 -19.176861 -12.889839 23.960828 -38.488652 43.475486 -28.529543 39.243938 66.128744 -6.807871 5.292741 -3.264935 -42.365368 -6.622259 14.184682 -42.815017 -56.185549 -20.553376 16.556339 15.423330 -56.723174 6.187110 -5.014250 -20.771985 6.037911 -7.980495 -4.027460 -11.697658 3.879308 6.698409 -1.350531 8.815381 0.313112 -13.402237 5.184307 -13.438572 -3.242609 -0.243441 5.802222 0.359328 -9.085904 6.928573 -0.697073 1.424553 -0.148524 
7.027226 12.733761 83.555099 -1.393647 1.562379 -98.225558 -2.958562 -3.123748 -0.529844 -1.062763 -1.426444 -0.207173 -1.062763 -1.426443 -0.207173 -0.797514 -1.069478 -0.157856 3.790348 -15.547483 -7.816134 4.184744 7.307356 -13.184347 9.211041 5.189993 -1.124959 47.123763 -19.132835 -12.827427 23.939441 -38.460413 43.509719 -28.536693 39.319657 66.124769 -6.821887 5.250476 -3.231802 -42.438643 -6.771911 14.004112 -42.673663 -56.070546 -20.549620 16.536142 15.566252 -56.830025 6.297474 -5.359447 -21.113587 6.106756 -8.223699 -3.777561 -11.423774 3.371444 6.892436 -1.717616 9.828112 0.198398 -13.135885 4.798969 -12.757335 -3.319969 -0.380598 5.529192 0.582673 -9.296461 6.713461 -0.738016 1.460079 -0.039165 
7.425715 12.491004 83.610153 -1.554633 1.423293 -98.222362 -2.873883 -3.195424 -0.545309 -1.027397 -1.441864 -0.201511 -1.027397 -1.441865 -0.201511 -0.770983 -1.081064 -0.153548 3.763914 -15.643770 -7.811813 4.144452 7.127182 -13.183092 9.209373 5.184850 -1.118696 47.051705 -19.107907 -12.745194 23.902894 -38.436855 43.556608 -28.541153 39.384889 66.118881 -6.819323 5.174422 -3.228953 -42.539012 -6.828208 13.838108 -42.558533 -55.952042 -20.501146 16.539337 15.674029 -56.948249 6.383783 -5.687868 -21.453387 6.156862 -8.504240 -3.515682 -11.112737 2.890838 7.003034 -2.110140 10.829828 0.071518 -12.885496 4.390137 -12.133674 -3.365119 -0.490888 5.175048 0.859802 -9.427779 6.534498 -0.837735 1.411909 0.031393 
7.814029 12.219792 83.657661 -1.693407 1.275647 -98.217301 -2.767463 -3.253695 -0.557578 -0.995342 -1.459174 -0.197115 -0.995342 -1.459175 -0.197115 -0.746937 -1.094065 -0.150207 3.741852 -15.745685 -7.804575 4.113824 6.937039 -13.174574 9.206310 5.199538 -1.140511 46.975408 -19.105251 -12.655573 23.855551 -38.408233 43.605031 -28.537382 39.429873 66.114906 -6.812197 5.131969 -3.235613 -42.638836 -6.862947 13.704735 -42.477367 -55.844276 -20.424670 16.542831 15.766964 -57.045863 6.480943 -5.961892 -21.711532 6.192703 -8.838182 -3.368554 -10.828635 2.423506 7.366603 -2.527870 11.848526 -0.071688 -12.649466 3.991309 -11.653699 -3.397562 -0.602155 4.855874 1.253108 -9.496107 6.424376 -1.000209 1.338128 0.084195 
8.201821 11.961295 83.697922 -1.822367 1.140204 -98.254559 -2.657423 -3.300781 -0.538580 -0.966558 -1.475745 -0.196843 -0.966558 -1.475746 -0.196841 -0.725353 -1.106502 -0.149959 3.720290 -15.851324 -7.788057 4.087779 6.740379 -13.148473 9.187789 5.184296 -1.154772 46.904282 -19.090872 -12.547423 23.791203 -38.380086 43.659474 -28.526627 39.470318 66.111006 -6.801820 5.087498 -3.224312 -42.730756 -6.859704 13.597889 -42.437000 -55.772681 -20.334281 16.566434 15.871997 -57.113485 6.559636 -6.182599 -21.800775 6.237678 -9.239591 -3.406704 -10.442541 2.008500 7.627560 -3.027698 12.854670 -0.280652 -12.418504 3.607849 -11.253929 -3.440085 -0.712832 4.655721 1.761658 -9.507326 6.335066 -1.212878 1.259446 0.069421 
8.575824 11.697239 83.730942 -1.931744 1.001021 -98.299434 -2.534255 -3.333745 -0.520904 -0.939418 -1.489302 -0.191658 -0.939418 -1.489302 -0.191659 -0.704991 -1.116685 -0.146023 3.700944 -15.957178 -7.773129 4.065284 6.543433 -13.124529 9.174648 5.179939 -1.168558 46.834477 -19.086573 -12.456976 23.724300 -38.338050 43.710298 -28.507330 39.506142 66.115268 -6.783468 5.037069 -3.207841 -42.823742 -6.859769 13.488690 -42.428169 -55.684558 -20.241416 16.586071 15.974230 -57.147383 6.607918 -6.332480 -21.795209 6.311498 -9.725640 -3.606630 -10.047329 1.591262 7.950469 -3.554936 13.906257 -0.473013 -12.177163 3.253902 -10.882642 -3.519797 -0.838160 4.608686 2.340968 -9.406778 6.143704 -1.390368 1.151367 0.098754 
8.932990 11.443755 83.756363 -2.018780 0.867553 -98.339452 -2.419298 -3.351691 -0.509923 -0.912563 -1.498469 -0.181033 -0.912563 -1.498469 -0.181034 -0.684827 -1.123584 -0.138007 3.685280 -16.063657 -7.763732 4.047680 6.345399 -13.109551 9.175233 5.187590 -1.166457 46.775891 -19.076828 -12.400611 23.658752 -38.303882 43.753143 -28.493874 39.565001 66.123915 -6.765272 5.013273 -3.183828 -42.914058 -6.875791 13.384192 -42.425624 -55.581129 -20.137370 16.580906 16.044382 -57.166016 6.635817 -6.427181 -21.774971 6.418620 -10.260140 -3.815772 -9.705563 1.179359 8.327860 -4.089501 14.966319 -0.650570 -11.917729 2.923189 -10.474345 -3.621720 -0.955954 4.601468 2.968850 -9.243178 5.770581 -1.546882 1.028569 0.122744 
9.281013 11.176073 83.775330 -2.106477 0.716269 -98.372592 -2.295279 -3.377253 -0.510292 -0.886266 -1.501885 -0.167917 -0.886266 -1.501885 -0.167916 -0.665075 -1.126173 -0.128109 3.673513 -16.176185 -7.753957 4.037902 6.136481 -13.092293 9.187197 5.192859 -1.148012 46.732977 -19.076529 -12.369094 23.617771 -38.258403 43.785727 -28.491975 39.636783 66.137897 -6.762165 4.994307 -3.173707 -42.976650 -6.858337 13.285180 -42.413798 -55.499604 -20.020804 16.551169 16.087305 -57.183174 6.687270 -6.520300 -21.808434 6.540432 -10.797902 -3.921769 -9.370676 0.729751 8.530703 -4.633977 16.062696 -0.854986 -11.640064 2.588970 -9.970391 -3.732578 -1.075468 4.493947 3.612413 -8.996157 5.457144 -1.668830 0.892697 0.204746 
9.616337 10.902853 83.788963 -2.189183 0.577922 -98.384128 -2.192098 -3.390026 -0.524756 -0.862328 -1.502677 -0.156245 -0.862328 -1.502677 -0.156244 -0.647094 -1.126790 -0.119297 3.668951 -16.297021 -7.746992 4.041100 5.912616 -13.077452 9.197888 5.180927 -1.156758 46.706507 -19.092721 -12.326041 23.591815 -38.209233 43.813533 -28.489856 39.715668 66.155068 -6.765286 4.978116 -3.172569 -43.017921 -6.835420 13.216330 -42.343358 -55.469028 -19.965830 16.511829 16.121813 -57.183799 6.712355 -6.589788 -21.893536 6.677518 -11.363683 -3.943010 -9.128646 0.270209 8.792841 -5.148878 17.167045 -1.051452 -11.374879 2.243407 -9.431798 -3.816106 -1.169078 4.300404 4.258699 -8.701436 5.203414 -1.782713 0.747206 0.275036 
9.949842 10.633456 83.798538 -2.282533 0.472061 -98.390828 -2.120709 -3.406528 -0.539519 -0.843039 -1.502138 -0.148026 -0.843040 -1.502139 -0.148026 -0.632607 -1.126402 -0.113085 3.669810 -16.424305 -7.739026 4.055161 5.677263 -13.058696 9.209196 5.187533 -1.170877 46.690603 -19.104924 -12.298481 23.576705 -38.176359 43.817784 -28.489228 39.781658 66.161597 -6.768704 4.964924 -3.182570 -43.046232 -6.813581 13.170246 -42.258684 -55.450495 -19.945170 16.490385 16.143548 -57.188877 6.716939 -6.649997 -21.946491 6.798350 -11.937419 -4.028733 -8.856893 -0.194633 9.034871 -5.688498 18.234735 -1.294448 -11.161770 1.868958 -8.926175 -3.861143 -1.225624 3.981700 4.812051 -8.400728 5.065099 -1.823464 0.620288 0.350740 
10.289417 10.369311 83.803635 -2.386447 0.402252 -98.397221 -2.072657 -3.440458 -0.550553 -0.827621 -1.504288 -0.141789 -0.827622 -1.504288 -0.141787 -0.621029 -1.128028 -0.108373 3.673264 -16.548782 -7.732292 4.073337 5.447230 -13.041473 9.213553 5.216576 -1.179527 46.670990 -19.091181 -12.286514 23.552782 -38.154611 43.815237 -28.482710 39.818203 66.164575 -6.774711 4.961815 -3.188225 -43.072775 -6.817301 13.121688 -42.178576 -55.413212 -19.958457 16.477556 16.163299 -57.188095 6.692798 -6.717572 -21.991956 6.911582 -12.510020 -4.220435 -8.549958 -0.626478 9.233277 -6.223003 19.258265 -1.523975 -10.990082 1.482236 -8.551484 -3.896988 -1.273569 3.705722 5.270030 -8.062684 5.034053 -1.792676 0.500840 0.395962 
